<svg width="20" height="17" viewBox="0 0 20 17" fill="none" xmlns="http://www.w3.org/2000/svg">
<path d="M17.2549 8.97975L0.570994 8.96442C0.41095 8.96455 0.275561 8.90859 0.164828 8.79656C0.0540947 8.68478 -0.00127121 8.55525 -0.00127084 8.40797C-0.00127115 8.26094 0.0540955 8.13652 0.164829 8.03471C0.275562 7.93289 0.410878 7.88198 0.570779 7.88198L17.2549 7.86685L9.73684 0.954167C9.6157 0.842785 9.55521 0.711682 9.55535 0.560858C9.55549 0.410034 9.6162 0.278865 9.73748 0.167352C9.85876 0.0558397 10.0012 0.000214838 10.1648 0.000476897C10.3284 0.000738962 10.4708 0.0565613 10.5919 0.167943L18.8796 7.78822C19.0753 7.96814 19.1731 8.17983 19.1731 8.4233C19.1731 8.66676 19.0753 8.87845 18.8796 9.05837L10.5919 16.6786C10.4708 16.79 10.3282 16.8457 10.1642 16.8455C10.0001 16.8454 9.85748 16.7896 9.7362 16.6781C9.61492 16.5665 9.55442 16.4356 9.55471 16.2851C9.55499 16.1347 9.6157 16.0038 9.73684 15.8924L17.2549 8.97975Z" fill="#212121"/>
</svg>
