<svg width="34" height="35" viewBox="0 0 34 35" fill="none" xmlns="http://www.w3.org/2000/svg">
<path d="M13.4875 22.7727C11.0683 22.7727 9.01956 21.909 7.34128 20.1816C5.66324 18.4539 4.82422 16.3449 4.82422 13.8546C4.82422 11.3642 5.66324 9.25526 7.34128 7.52762C9.01956 5.80022 11.0683 4.93652 13.4875 4.93652C15.9067 4.93652 17.9554 5.80022 19.6337 7.52762C21.3117 9.25526 22.1508 11.3642 22.1508 13.8546C22.1508 14.8961 21.981 15.8908 21.6415 16.8387C21.3017 17.7866 20.8485 18.6111 20.2818 19.312L28.4333 27.7033C28.6295 27.905 28.7299 28.1588 28.7344 28.4645C28.7388 28.7703 28.6385 29.0288 28.4333 29.24C28.2281 29.4512 27.9793 29.5568 27.6867 29.5568C27.3944 29.5568 27.1457 29.4512 26.9405 29.24L18.789 20.8488C18.0807 21.4508 17.2661 21.922 16.3453 22.2623C15.4244 22.6025 14.4718 22.7727 13.4875 22.7727ZM13.4875 20.5855C15.3129 20.5855 16.8589 19.9334 18.1257 18.6292C19.3926 17.3252 20.0261 15.7337 20.0261 13.8546C20.0261 11.9755 19.3926 10.384 18.1257 9.08001C16.8589 7.77578 15.3129 7.12366 13.4875 7.12366C11.6621 7.12366 10.1161 7.77578 8.84932 9.08001C7.58235 10.384 6.94886 11.9755 6.94886 13.8546C6.94886 15.7337 7.58235 17.3252 8.84932 18.6292C10.1161 19.9334 11.6621 20.5855 13.4875 20.5855Z" fill="#7557FF"/>
</svg>
