<svg width="34" height="34" viewBox="0 0 34 34" fill="none" xmlns="http://www.w3.org/2000/svg">
<path d="M21.0387 13.8927L12.5012 21.7144C12.3963 21.8105 12.2764 21.8557 12.1414 21.8498C12.0065 21.8439 11.891 21.7884 11.7948 21.6835C11.6987 21.5785 11.6535 21.4586 11.6594 21.3237C11.6653 21.1887 11.7208 21.0732 11.8257 20.977L20.3632 13.1553L12.6795 12.819C12.5419 12.8131 12.4268 12.7629 12.3342 12.6685C12.2417 12.5742 12.1988 12.4491 12.2057 12.2932C12.2151 12.1404 12.2654 12.0208 12.3567 11.9345C12.4481 11.8482 12.5717 11.8085 12.7273 11.8153L21.3186 12.1912C21.442 12.1966 21.5474 12.221 21.6348 12.2643C21.7223 12.3075 21.8024 12.3689 21.8752 12.4482C21.9479 12.5276 22.002 12.6128 22.0374 12.7038C22.0729 12.7946 22.088 12.9017 22.0826 13.0251L21.7067 21.6164C21.7009 21.7485 21.6508 21.8622 21.5564 21.9575C21.4619 22.0527 21.3381 22.0983 21.185 22.0943C21.0292 22.0875 20.9081 22.0371 20.822 21.9431C20.7358 21.8489 20.6961 21.724 20.7031 21.5682L21.0387 13.8927Z" fill="#7557FF"/>
</svg>
