<svg width="26" height="24" viewBox="0 0 26 24" fill="none" xmlns="http://www.w3.org/2000/svg">
<path d="M22.9542 3.40216L1.79563 22.818C1.59304 23.0046 1.34442 23.0914 1.04975 23.0785C0.755444 23.0659 0.506819 22.9663 0.303875 22.7797C0.101292 22.5934 0 22.3713 0 22.1133C0 21.8553 0.101292 21.6332 0.303875 21.4469L21.4207 1.99219H2.37088C2.06393 1.99219 1.80664 1.89656 1.599 1.70531C1.39136 1.51406 1.28754 1.27716 1.28754 0.994598C1.28754 0.71204 1.39136 0.475634 1.599 0.28538C1.80664 0.095126 2.06393 0 2.37088 0H23.3707C23.8666 0 24.2822 0.154227 24.6177 0.462684C24.9531 0.771141 25.1209 1.15331 25.1209 1.60919V20.918C25.1209 21.2002 25.0169 21.4368 24.8089 21.6277C24.6009 21.8186 24.3432 21.9141 24.0359 21.9141C23.7286 21.9141 23.4715 21.8186 23.2646 21.6277C23.0577 21.4368 22.9542 21.2002 22.9542 20.918V3.40216Z" fill="#212121"/>
</svg>
