<svg width="16" height="16" viewBox="0 0 16 16" fill="none" xmlns="http://www.w3.org/2000/svg">
<path d="M7.82461 16C5.90411 16 4.21886 15.4106 2.76886 14.2318C1.31886 13.0529 0.403448 11.5423 0.0226144 9.7C-0.0183856 9.5525 -0.00363584 9.41625 0.0668642 9.29125C0.137364 9.16625 0.248281 9.0935 0.399614 9.073C0.541948 9.0525 0.666948 9.08333 0.774615 9.1655C0.882281 9.2475 0.958614 9.36417 1.00361 9.5155C1.36511 11.1052 2.18045 12.4167 3.44961 13.45C4.71895 14.4833 6.17728 15 7.82461 15C9.77461 15 11.4288 14.3208 12.7871 12.9625C14.1454 11.6042 14.8246 9.95 14.8246 8C14.8246 6.05 14.1454 4.39583 12.7871 3.0375C11.4288 1.67917 9.77461 1 7.82461 1C6.78995 1 5.81753 1.21858 4.90736 1.65575C3.99703 2.09292 3.19378 2.69483 2.49761 3.4615H4.47861C4.62028 3.4615 4.73903 3.5095 4.83486 3.6055C4.9307 3.7015 4.97861 3.82042 4.97861 3.96225C4.97861 4.10408 4.9307 4.22275 4.83486 4.31825C4.73903 4.41375 4.62028 4.4615 4.47861 4.4615H1.63236C1.40353 4.4615 1.2117 4.38408 1.05686 4.22925C0.902031 4.07442 0.824615 3.88258 0.824615 3.65375V0.80775C0.824615 0.666083 0.872614 0.547333 0.968614 0.4515C1.06461 0.355667 1.18353 0.30775 1.32536 0.30775C1.4672 0.30775 1.58586 0.355667 1.68136 0.4515C1.77686 0.547333 1.82461 0.666083 1.82461 0.80775V2.69625C2.59778 1.84742 3.50386 1.18583 4.54286 0.711501C5.58203 0.237167 6.67595 0 7.82461 0C8.93461 0 9.97428 0.208666 10.9436 0.625999C11.9129 1.04333 12.7601 1.6145 13.4851 2.3395C14.2101 3.0645 14.7813 3.91158 15.1986 4.88075C15.6159 5.84975 15.8246 6.88917 15.8246 7.999C15.8246 9.10867 15.6159 10.1484 15.1986 11.1183C14.7813 12.0881 14.2101 12.9355 13.4851 13.6605C12.7601 14.3855 11.9129 14.9567 10.9436 15.374C9.97428 15.7913 8.93461 16 7.82461 16ZM8.38236 7.79225L11.3824 10.7923C11.4759 10.8859 11.5259 11.0007 11.5324 11.1365C11.5387 11.2725 11.4887 11.3937 11.3824 11.5C11.2759 11.6063 11.1579 11.6595 11.0286 11.6595C10.8991 11.6595 10.7811 11.6063 10.6746 11.5L7.62461 8.45C7.53745 8.36283 7.47528 8.27142 7.43811 8.17575C7.40095 8.07992 7.38236 7.98092 7.38236 7.87875V3.5C7.38236 3.35833 7.43036 3.23958 7.52636 3.14375C7.6222 3.04792 7.74111 3 7.88311 3C8.02495 3 8.14361 3.04792 8.23911 3.14375C8.33461 3.23958 8.38236 3.35833 8.38236 3.5V7.79225Z" fill="#212121"/>
</svg>
