<svg width="18" height="15" viewBox="0 0 18 15" fill="none" xmlns="http://www.w3.org/2000/svg">
<path d="M4.7609 13.2281L8.8421 11.0353L12.9233 13.257L11.8544 9.1021L15.4498 6.33217L10.7208 5.95708L8.8421 2.03301L6.96345 5.92823L2.23444 6.30332L5.82979 9.1021L4.7609 13.2281ZM8.8421 12.3937L4.13803 14.9239C4.00005 14.9845 3.8721 15.0089 3.7542 14.9971C3.6363 14.9852 3.52175 14.949 3.41054 14.8884C3.29911 14.8276 3.21436 14.7406 3.15627 14.6275C3.09818 14.5144 3.09322 14.392 3.14137 14.2602L4.39229 9.51701L0.253757 6.3189C0.137367 6.23446 0.0604934 6.13347 0.0231363 6.01594C-0.0142208 5.89822 -0.00633874 5.7854 0.0467817 5.67749C0.0999022 5.56939 0.171377 5.48129 0.261207 5.41319C0.350821 5.34529 0.472069 5.29941 0.624952 5.27556L6.08632 4.8517L8.21664 0.359514C8.27473 0.232175 8.35905 0.140421 8.46961 0.0842533C8.58017 0.0280853 8.70434 0 8.8421 0C8.97987 0 9.10404 0.0280853 9.2146 0.0842533C9.32516 0.140421 9.40948 0.232175 9.46757 0.359514L11.5979 4.8517L17.0593 5.27556C17.2121 5.29941 17.3334 5.34529 17.423 5.41319C17.5128 5.48129 17.5843 5.56939 17.6374 5.67749C17.6905 5.7854 17.6984 5.89822 17.6611 6.01594C17.6237 6.13347 17.5468 6.23446 17.4305 6.3189L13.2919 9.51701L14.5428 14.2602C14.591 14.392 14.586 14.5144 14.5279 14.6275C14.4699 14.7406 14.3851 14.8276 14.2737 14.8884C14.1625 14.949 14.0479 14.9852 13.93 14.9971C13.8121 15.0089 13.6842 14.9845 13.5462 14.9239L8.8421 12.3937Z" fill="#212121"/>
</svg>
