<svg width="11" height="10" viewBox="0 0 11 10" fill="none" xmlns="http://www.w3.org/2000/svg">
<path d="M5.48824 10C5.36917 10 5.25148 9.97718 5.13517 9.93153C5.01875 9.88588 4.91629 9.81617 4.82778 9.72239L4.12622 9.0511C3.03875 8.00433 2.07915 6.98642 1.24743 5.99738C0.41581 5.00834 0 3.98045 0 2.91371C0 2.09021 0.264051 1.39874 0.792153 0.839309C1.32015 0.279769 1.97277 0 2.75 0C3.19581 0 3.66 0.119354 4.14257 0.358062C4.62525 0.596662 5.07772 1.04678 5.5 1.7084C5.92228 1.04678 6.37475 0.596662 6.85743 0.358062C7.34 0.119354 7.80419 0 8.25 0C9.02723 0 9.67985 0.279769 10.2078 0.839309C10.7359 1.39874 11 2.09021 11 2.91371C11 4.00527 10.5671 5.05452 9.70139 6.06148C8.83565 7.06843 7.88802 8.06622 6.8585 9.05483L6.16046 9.72239C6.07195 9.81617 5.96755 9.88588 5.84726 9.93153C5.72698 9.97718 5.6073 10 5.48824 10ZM5.20147 2.38082C4.83562 1.75567 4.45525 1.31052 4.06037 1.04537C3.6655 0.780118 3.2287 0.64749 2.75 0.64749C2.13889 0.64749 1.62963 0.86332 1.22222 1.29498C0.814815 1.72664 0.611111 2.26622 0.611111 2.91371C0.611111 3.39188 0.738833 3.88224 0.994278 4.3848C1.24962 4.88747 1.59256 5.40239 2.02308 5.92955C2.45361 6.45661 2.94841 6.99575 3.50747 7.54698C4.06643 8.09821 4.64837 8.66558 5.25326 9.24907C5.32375 9.31555 5.40599 9.34879 5.5 9.34879C5.59401 9.34879 5.67625 9.31555 5.74674 9.24907C6.35163 8.66558 6.93356 8.09821 7.49253 7.54698C8.05159 6.99575 8.54639 6.45661 8.97692 5.92955C9.40744 5.40239 9.75038 4.88747 10.0057 4.3848C10.2612 3.88224 10.3889 3.39188 10.3889 2.91371C10.3889 2.26622 10.1852 1.72664 9.77778 1.29498C9.37037 0.86332 8.86111 0.64749 8.25 0.64749C7.7713 0.64749 7.3345 0.780118 6.93962 1.04537C6.54475 1.31052 6.16438 1.75567 5.79853 2.38082C5.76634 2.43888 5.72285 2.48242 5.66806 2.51145C5.61326 2.54059 5.55724 2.55516 5.5 2.55516C5.44276 2.55516 5.38674 2.54059 5.33194 2.51145C5.27715 2.48242 5.23366 2.43888 5.20147 2.38082Z" fill="#212121"/>
</svg>
