<svg width="11" height="10" viewBox="0 0 11 10" fill="none" xmlns="http://www.w3.org/2000/svg">
<path d="M1.88039 8.77753L0.839056 9.84573C0.68475 10.0041 0.506306 10.0406 0.303722 9.95497C0.101241 9.86929 0 9.71354 0 9.48773V1.01286C0 0.724251 0.094213 0.483287 0.282639 0.289972C0.471065 0.0966573 0.705935 0 0.98725 0H10.0128C10.2941 0 10.5289 0.0966573 10.7174 0.289972C10.9058 0.483287 11 0.724251 11 1.01286V7.76467C11 8.05328 10.9058 8.29424 10.7174 8.48756C10.5289 8.68087 10.2941 8.77753 10.0128 8.77753H1.88039ZM1.61944 8.15056H10.0128C10.1069 8.15056 10.1931 8.11039 10.2714 8.03003C10.3497 7.94967 10.3889 7.86122 10.3889 7.76467V1.01286C10.3889 0.916312 10.3497 0.827857 10.2714 0.747501C10.1931 0.667145 10.1069 0.626966 10.0128 0.626966H0.98725C0.893139 0.626966 0.806921 0.667145 0.728597 0.747501C0.650273 0.827857 0.611111 0.916312 0.611111 1.01286V9.18145L1.61944 8.15056Z" fill="#212121"/>
</svg>
