<svg width="10" height="10" viewBox="0 0 10 10" fill="none" xmlns="http://www.w3.org/2000/svg">
<path d="M8.50672 10C8.09203 10 7.74042 9.8712 7.45187 9.61361C7.16344 9.35602 7.01922 9.04324 7.01922 8.67528C7.01922 8.61972 7.04687 8.4794 7.10219 8.25431L2.60344 5.88028C2.46875 6.01917 2.30354 6.12796 2.10781 6.20667C1.91198 6.28537 1.70219 6.32472 1.47844 6.32472C1.06771 6.32472 0.718646 6.19477 0.43125 5.93486C0.14375 5.67486 0 5.36324 0 5C0 4.63676 0.14375 4.32514 0.43125 4.06514C0.718646 3.80523 1.06771 3.67528 1.47844 3.67528C1.70219 3.67528 1.91198 3.71463 2.10781 3.79333C2.30354 3.87204 2.46875 3.98083 2.60344 4.11972L7.10219 1.75639C7.07333 1.68444 7.05229 1.61306 7.03906 1.54222C7.02583 1.4713 7.01922 1.3988 7.01922 1.32472C7.01922 0.956759 7.16437 0.643982 7.45469 0.386389C7.7451 0.128796 8.09771 0 8.5125 0C8.92729 0 9.27891 0.129028 9.56734 0.387083C9.85578 0.645231 10 0.958658 10 1.32736C10 1.69597 9.8551 2.00852 9.56531 2.265C9.27552 2.52139 8.92365 2.64958 8.50969 2.64958C8.28365 2.64958 8.07531 2.60843 7.88469 2.52611C7.69396 2.44389 7.53125 2.33333 7.39656 2.19444L2.89781 4.56833C2.92667 4.64028 2.94771 4.71171 2.96094 4.78264C2.97417 4.85347 2.98078 4.92593 2.98078 5C2.98078 5.07407 2.97417 5.14653 2.96094 5.21736C2.94771 5.28829 2.92667 5.35972 2.89781 5.43167L7.39656 7.80556C7.53125 7.66667 7.69396 7.55611 7.88469 7.47389C8.07531 7.39157 8.28365 7.35042 8.50969 7.35042C8.92365 7.35042 9.27552 7.47944 9.56531 7.7375C9.8551 7.99565 10 8.30907 10 8.67778C10 9.04648 9.85484 9.35903 9.56453 9.61542C9.27411 9.87181 8.92151 10 8.50672 10ZM8.50969 9.44444C8.75479 9.44444 8.96031 9.37074 9.12625 9.22333C9.29208 9.07583 9.375 8.89315 9.375 8.67528C9.375 8.45731 9.29208 8.27458 9.12625 8.12708C8.96031 7.97968 8.75479 7.90597 8.50969 7.90597C8.26448 7.90597 8.05891 7.97968 7.89297 8.12708C7.72714 8.27458 7.64422 8.45731 7.64422 8.67528C7.64422 8.89315 7.72714 9.07583 7.89297 9.22333C8.05891 9.37074 8.26448 9.44444 8.50969 9.44444ZM1.47844 5.76917C1.72698 5.76917 1.93531 5.69546 2.10344 5.54806C2.27167 5.40065 2.35578 5.21796 2.35578 5C2.35578 4.78204 2.27167 4.59935 2.10344 4.45194C1.93531 4.30454 1.72698 4.23083 1.47844 4.23083C1.23656 4.23083 1.03385 4.30454 0.870312 4.45194C0.706771 4.59935 0.625 4.78204 0.625 5C0.625 5.21796 0.706771 5.40065 0.870312 5.54806C1.03385 5.69546 1.23656 5.76917 1.47844 5.76917ZM8.50969 2.09403C8.75479 2.09403 8.96031 2.02032 9.12625 1.87292C9.29208 1.72542 9.375 1.54269 9.375 1.32472C9.375 1.10685 9.29208 0.924166 9.12625 0.776666C8.96031 0.629259 8.75479 0.555556 8.50969 0.555556C8.26448 0.555556 8.05891 0.629259 7.89297 0.776666C7.72714 0.924166 7.64422 1.10685 7.64422 1.32472C7.64422 1.54269 7.72714 1.72542 7.89297 1.87292C8.05891 2.02032 8.26448 2.09403 8.50969 2.09403Z" fill="#212121"/>
</svg>
