<svg width="36" height="36" viewBox="0 0 36 36" fill="none" xmlns="http://www.w3.org/2000/svg">
<path d="M9.92325 28.5C9.23275 28.5 8.65625 28.2688 8.19375 27.8063C7.73125 27.3438 7.5 26.7673 7.5 26.0768V23.1923C7.5 22.9788 7.57162 22.8004 7.71487 22.6572C7.85812 22.5139 8.0365 22.4423 8.25 22.4423C8.4635 22.4423 8.64188 22.5139 8.78513 22.6572C8.92838 22.8004 9 22.9788 9 23.1923V26.0768C9 26.3078 9.09613 26.5194 9.28838 26.7117C9.48063 26.9039 9.69225 27 9.92325 27H26.0768C26.3078 27 26.5194 26.9039 26.7116 26.7117C26.9039 26.5194 27 26.3078 27 26.0768V23.1923C27 22.9788 27.0716 22.8004 27.2149 22.6572C27.3581 22.5139 27.5365 22.4423 27.75 22.4423C27.9635 22.4423 28.1419 22.5139 28.2851 22.6572C28.4284 22.8004 28.5 22.9788 28.5 23.1923V26.0768C28.5 26.7673 28.2688 27.3438 27.8063 27.8063C27.3438 28.2688 26.7673 28.5 26.0768 28.5H9.92325ZM17.25 10.3905L14.2931 13.347C14.1471 13.4933 13.9736 13.5698 13.7726 13.5765C13.5716 13.5833 13.3885 13.5039 13.2232 13.3384C13.0635 13.1732 12.9823 12.9963 12.9795 12.8078C12.9765 12.6193 13.0578 12.4423 13.2232 12.2768L17.1518 8.34829C17.2828 8.21729 17.4165 8.12541 17.553 8.07266C17.6895 8.01966 17.8385 7.99316 18 7.99316C18.1615 7.99316 18.3105 8.01966 18.447 8.07266C18.5835 8.12541 18.7172 8.21729 18.8483 8.34829L22.7768 12.2768C22.923 12.423 22.9995 12.5952 23.0063 12.7932C23.013 12.9914 22.9365 13.1732 22.7768 13.3384C22.6115 13.5039 22.4333 13.588 22.242 13.5908C22.0505 13.5938 21.8721 13.5125 21.7069 13.347L18.75 10.3905V22.6155C18.75 22.829 18.6784 23.0074 18.5351 23.1507C18.3919 23.2939 18.2135 23.3655 18 23.3655C17.7865 23.3655 17.6081 23.2939 17.4649 23.1507C17.3216 23.0074 17.25 22.829 17.25 22.6155V10.3905Z" fill="white"/>
</svg>
