<svg width="34" height="34" viewBox="0 0 34 34" fill="none" xmlns="http://www.w3.org/2000/svg">
<circle cx="17" cy="17" r="17" fill="#E8E2FF"/>
<path d="M24.5106 11.5763C24.0372 11.0754 23.4734 10.678 22.8519 10.4074C22.2304 10.1367 21.5637 9.99828 20.8907 10C20.2176 9.99828 19.5509 10.1367 18.9294 10.4074C18.3079 10.678 17.7441 11.0754 17.2708 11.5763L16.982 11.8894L16.6932 11.5871C15.7359 10.585 14.4375 10.022 13.0836 10.022C11.7298 10.022 10.4314 10.585 9.47404 11.5871C8.52922 12.5962 8 13.9529 8 15.366C8 16.779 8.52922 18.1357 9.47404 19.1448L16.456 26.4757C16.601 26.6274 16.7976 26.7126 17.0026 26.7126C17.2076 26.7126 17.4042 26.6274 17.5492 26.4757L24.5312 19.1448C25.4764 18.1324 26.0038 16.7718 26 15.3561C25.9961 13.9405 25.4612 12.5831 24.5106 11.5763Z" fill="#7557FF"/>
</svg>
